<svg width="18" height="16" viewBox="0 0 18 16" fill="none" xmlns="http://www.w3.org/2000/svg">
<path d="M2.58248 16H15.4175C17.1295 16 18 15.13 18 13.4752V2.51537C18 0.869976 17.1295 0 15.4175 0H2.58248C0.880172 0 0 0.851064 0 2.51537V13.4752C0 15.1395 0.880172 16 2.58248 16ZM2.53412 15.0827C1.48952 15.0827 0.928533 14.5437 0.928533 13.5035V5.48463C0.928533 4.44444 1.48952 3.90544 2.53412 3.90544H15.4562C16.4815 3.90544 17.0715 4.44444 17.0715 5.48463V13.5035C17.0715 14.5437 16.4815 15.0827 15.4562 15.0827H2.53412ZM7.16711 7.05437H7.69909C7.96991 7.05437 8.02794 6.99764 8.02794 6.74232V6.21277C8.02794 5.9669 7.96991 5.91017 7.69909 5.91017H7.16711C6.89629 5.91017 6.83826 5.9669 6.83826 6.21277V6.74232C6.83826 6.99764 6.89629 7.05437 7.16711 7.05437ZM10.3009 7.05437H10.8329C11.1037 7.05437 11.1617 6.99764 11.1617 6.74232V6.21277C11.1617 5.9669 11.1037 5.91017 10.8329 5.91017H10.3009C10.0301 5.91017 9.97206 5.9669 9.97206 6.21277V6.74232C9.97206 6.99764 10.0301 7.05437 10.3009 7.05437ZM13.425 7.05437H13.9667C14.2278 7.05437 14.2955 6.99764 14.2955 6.74232V6.21277C14.2955 5.9669 14.2278 5.91017 13.9667 5.91017H13.425C13.1639 5.91017 13.0962 5.9669 13.0962 6.21277V6.74232C13.0962 6.99764 13.1639 7.05437 13.425 7.05437ZM4.03332 10.0709H4.57496C4.83611 10.0709 4.90381 10.0142 4.90381 9.75887V9.22931C4.90381 8.974 4.83611 8.91726 4.57496 8.91726H4.03332C3.77217 8.91726 3.70446 8.974 3.70446 9.22931V9.75887C3.70446 10.0142 3.77217 10.0709 4.03332 10.0709ZM7.16711 10.0709H7.69909C7.96991 10.0709 8.02794 10.0142 8.02794 9.75887V9.22931C8.02794 8.974 7.96991 8.91726 7.69909 8.91726H7.16711C6.89629 8.91726 6.83826 8.974 6.83826 9.22931V9.75887C6.83826 10.0142 6.89629 10.0709 7.16711 10.0709ZM10.3009 10.0709H10.8329C11.1037 10.0709 11.1617 10.0142 11.1617 9.75887V9.22931C11.1617 8.974 11.1037 8.91726 10.8329 8.91726H10.3009C10.0301 8.91726 9.97206 8.974 9.97206 9.22931V9.75887C9.97206 10.0142 10.0301 10.0709 10.3009 10.0709ZM13.425 10.0709H13.9667C14.2278 10.0709 14.2955 10.0142 14.2955 9.75887V9.22931C14.2955 8.974 14.2278 8.91726 13.9667 8.91726H13.425C13.1639 8.91726 13.0962 8.974 13.0962 9.22931V9.75887C13.0962 10.0142 13.1639 10.0709 13.425 10.0709ZM4.03332 13.078H4.57496C4.83611 13.078 4.90381 13.0213 4.90381 12.766V12.2459C4.90381 11.9905 4.83611 11.9338 4.57496 11.9338H4.03332C3.77217 11.9338 3.70446 11.9905 3.70446 12.2459V12.766C3.70446 13.0213 3.77217 13.078 4.03332 13.078ZM7.16711 13.078H7.69909C7.96991 13.078 8.02794 13.0213 8.02794 12.766V12.2459C8.02794 11.9905 7.96991 11.9338 7.69909 11.9338H7.16711C6.89629 11.9338 6.83826 11.9905 6.83826 12.2459V12.766C6.83826 13.0213 6.89629 13.078 7.16711 13.078ZM10.3009 13.078H10.8329C11.1037 13.078 11.1617 13.0213 11.1617 12.766V12.2459C11.1617 11.9905 11.1037 11.9338 10.8329 11.9338H10.3009C10.0301 11.9338 9.97206 11.9905 9.97206 12.2459V12.766C9.97206 13.0213 10.0301 13.078 10.3009 13.078Z" fill="#0898A0"/>
</svg>
