<svg width="9" height="16" viewBox="0 0 9 16" fill="none" xmlns="http://www.w3.org/2000/svg">
<path d="M4.07354 11.4719C4.56379 11.4719 4.79554 11.1331 4.79554 10.6786V10.2596C4.81337 9.10084 5.21448 8.59276 6.5961 7.639C8.09359 6.60501 8.9493 5.50864 8.9493 3.93092C8.9493 1.48858 6.96156 0 4.44791 0C2.54039 0 0.900279 0.971588 0.222841 2.6117C0.0623955 2.99499 0 3.36045 0 3.6546C0 4.06462 0.231755 4.34095 0.668524 4.34095C1.03398 4.34095 1.27465 4.12702 1.38162 3.77047C1.77382 2.09471 2.92368 1.33705 4.40334 1.33705C6.12368 1.33705 7.47855 2.3532 7.47855 3.93092C7.47855 5.13426 6.75655 5.85627 5.57994 6.69415C4.19833 7.67465 3.3337 8.61059 3.3337 10.0813V10.6964C3.3337 11.151 3.58329 11.4719 4.07354 11.4719ZM4.08245 16C4.67075 16 5.14318 15.5187 5.14318 14.9393C5.14318 14.3599 4.67075 13.8875 4.08245 13.8875C3.50306 13.8875 3.03064 14.3599 3.03064 14.9393C3.03064 15.5187 3.50306 16 4.08245 16Z" fill="#0898A0"/>
</svg>
